<?xml version="1.0" standalone="no"?>
<!DOCTYPE svg PUBLIC "-//W3C//DTD SVG 20010904//EN"
 "http://www.w3.org/TR/2001/REC-SVG-20010904/DTD/svg10.dtd">
<svg version="1.0" xmlns="http://www.w3.org/2000/svg"
 width="256.000000pt" height="256.000000pt" viewBox="0 0 256.000000 256.000000"
 preserveAspectRatio="xMidYMid meet">
<metadata>
Created by potrace 1.14, written by Peter Selinger 2001-2017
</metadata>
<g transform="translate(0.000000,256.000000) scale(0.100000,-0.100000)"
fill="#000000" stroke="none">
<path d="M1148 2543 c7 -3 16 -2 19 1 4 3 -2 6 -13 5 -11 0 -14 -3 -6 -6z"/>
<path d="M1225 2541 c23 -5 31 -13 36 -39 3 -17 2 -32 -3 -32 -5 0 -7 -28 -6
-62 3 -56 1 -63 -17 -66 -16 -3 -18 -1 -7 9 14 15 16 43 3 67 -5 9 -12 25 -15
34 -11 36 -93 -13 -98 -59 -2 -16 -10 -29 -20 -31 -12 -2 -18 7 -23 37 -4 26
-12 41 -21 41 -9 0 -12 -5 -8 -12 4 -6 3 -8 -4 -5 -19 12 -40 -3 -34 -25 4
-16 1 -19 -14 -16 -10 2 -18 10 -17 16 2 7 -6 12 -17 12 -32 0 -24 -30 11 -42
28 -10 29 -12 14 -21 -14 -8 -22 -5 -36 12 -10 12 -19 27 -22 34 -2 6 -8 9
-12 5 -4 -4 0 -19 9 -32 22 -34 20 -49 -4 -41 -11 3 -20 2 -20 -3 0 -13 -71
-41 -86 -35 -7 2 -15 15 -18 29 -4 14 -14 24 -24 24 -13 0 -14 -2 -3 -9 7 -5
10 -14 7 -20 -10 -16 -26 -13 -26 4 0 13 -4 14 -21 5 -20 -11 -18 -13 20 -32
23 -11 38 -24 35 -29 -8 -14 -31 -11 -37 5 -7 17 -67 39 -67 25 0 -6 16 -17
35 -25 31 -13 34 -16 23 -34 -7 -11 -15 -19 -18 -17 -35 21 -102 47 -110 42
-18 -11 -10 -23 34 -49 55 -32 56 -32 92 -1 16 14 38 28 49 31 11 4 22 10 25
13 3 4 30 17 60 30 30 12 64 26 75 32 37 18 174 37 178 25 2 -7 -28 -18 -73
-28 -43 -9 -98 -26 -123 -37 -25 -12 -52 -21 -60 -21 -8 0 -34 -13 -58 -30
-24 -16 -48 -30 -52 -30 -5 0 -28 -16 -51 -35 -24 -19 -46 -35 -49 -35 -4 0
-27 20 -51 45 -49 48 -75 60 -56 25 6 -11 16 -20 23 -20 7 0 24 -14 38 -32
l26 -32 -50 -46 c-49 -45 -52 -46 -78 -33 -16 8 -31 23 -34 33 -4 11 -15 25
-26 30 -34 19 -22 -8 26 -56 l46 -45 -41 -51 c-22 -28 -40 -57 -40 -64 0 -8
-5 -14 -10 -14 -6 0 -15 -12 -21 -27 -5 -16 -19 -45 -30 -66 -10 -21 -19 -42
-19 -48 0 -5 -9 -29 -19 -52 -11 -23 -22 -64 -26 -91 -6 -36 -10 -45 -17 -33
-9 18 0 117 11 117 4 0 13 24 21 53 12 48 56 145 71 157 4 3 16 22 27 42 l21
37 -21 51 c-14 35 -26 50 -37 48 -15 -3 -22 -37 -10 -48 3 -3 13 -19 21 -37
13 -27 14 -35 3 -50 -12 -16 -15 -14 -35 20 -12 20 -27 37 -32 37 -12 0 17
-49 39 -67 8 -6 12 -16 8 -22 -11 -18 -22 -12 -35 19 -16 39 -26 45 -33 20 -3
-11 -1 -18 3 -15 5 3 11 1 14 -4 7 -11 -12 -25 -34 -26 -8 0 -18 7 -22 15 -4
10 -7 7 -7 -11 -1 -16 10 -36 29 -54 30 -28 39 -55 20 -55 -5 0 -17 14 -26 31
-12 25 -18 29 -25 18 -11 -18 -11 -32 0 -24 5 3 13 0 17 -6 9 -16 -18 -30 -33
-17 -10 8 -13 6 -13 -5 0 -11 12 -17 40 -19 30 -2 37 -6 31 -16 -7 -11 -15
-11 -46 2 l-38 16 6 53 c3 28 8 61 12 72 5 16 5 17 -4 5 -5 -8 -13 -32 -16
-52 -4 -21 -10 -38 -15 -38 -11 0 -40 -122 -40 -169 0 -22 -5 -43 -10 -46 -13
-8 -13 -295 0 -295 6 0 10 -16 10 -36 0 -39 29 -176 39 -184 4 -3 15 -31 24
-62 10 -32 21 -58 26 -58 4 0 15 -23 25 -50 10 -28 22 -50 26 -50 4 0 13 -14
20 -30 7 -17 21 -35 31 -41 11 -5 19 -16 19 -24 0 -8 9 -19 20 -25 11 -6 20
-16 20 -22 0 -13 111 -120 170 -162 22 -17 40 -32 40 -35 0 -4 -22 -16 -49
-29 -31 -14 -48 -28 -47 -38 0 -11 -15 -23 -42 -35 -41 -18 -42 -18 -42 2 0
11 10 23 24 28 13 5 26 17 30 26 3 9 11 13 18 9 6 -4 3 4 -8 18 l-19 26 -5
-25 c-7 -36 -45 -54 -79 -37 -14 7 -48 22 -75 34 -46 19 -48 21 -32 39 9 9 16
28 17 42 1 22 1 22 11 -6 17 -48 28 -58 47 -41 13 12 19 12 34 2 9 -7 17 -18
17 -25 0 -15 17 -14 23 2 3 7 9 2 15 -13 9 -21 11 -22 11 -5 1 11 -4 38 -10
60 -11 37 -12 38 -20 18 -12 -33 -68 -28 -70 6 -1 9 -5 3 -9 -14 -6 -23 -8
-25 -9 -8 0 12 -6 25 -12 29 -6 3 -9 19 -5 35 4 20 2 28 -7 26 -16 -3 -25 -25
-26 -60 -1 -16 -13 -40 -32 -59 -24 -26 -29 -39 -25 -60 5 -28 5 -28 -43 -28
-70 0 -81 -6 -81 -46 0 -19 4 -34 10 -34 5 0 7 13 3 30 -4 20 -2 30 7 30 7 0
10 -6 7 -14 -3 -7 -1 -18 5 -24 6 -6 6 -12 -1 -16 -6 -4 -11 -14 -11 -23 0
-11 6 -14 25 -9 20 5 25 3 25 -13 0 -11 -5 -23 -10 -26 -27 -17 10 -84 46 -85
6 0 17 -7 24 -15 14 -17 71 -20 86 -5 5 5 36 20 68 33 l59 24 56 -18 c31 -11
64 -24 73 -29 10 -5 60 -17 113 -27 60 -10 95 -21 95 -29 0 -7 10 -16 22 -20
12 -3 28 -13 35 -20 14 -14 43 -9 43 7 0 13 34 11 47 -2 8 -8 13 -8 17 0 10
16 26 13 26 -4 0 -9 10 -26 21 -38 19 -20 20 -20 11 -2 -14 29 -21 172 -8 185
14 14 488 14 502 0 13 -13 6 -156 -8 -185 -9 -18 -8 -18 11 2 11 12 21 29 21
38 0 18 11 20 27 4 8 -8 13 -8 17 0 9 13 46 15 46 2 0 -16 29 -21 43 -7 7 7
23 17 35 20 12 4 22 13 22 20 0 8 35 19 98 30 55 9 103 21 108 25 12 11 109
41 131 41 10 0 45 -14 78 -30 67 -33 106 -38 125 -15 7 8 18 15 24 15 36 1 73
68 46 85 -5 3 -10 15 -10 26 0 16 5 18 25 13 27 -7 35 12 14 33 -7 7 -7 13 0
17 5 4 8 13 4 21 -3 8 0 15 7 15 9 0 11 -10 7 -30 -4 -17 -2 -30 3 -30 6 0 10
15 10 34 0 40 -11 46 -81 46 -48 0 -48 0 -43 28 4 21 -1 34 -25 60 -19 19 -31
43 -32 59 -1 35 -10 57 -26 60 -9 2 -11 -6 -7 -26 4 -16 1 -32 -5 -35 -6 -4
-12 -17 -12 -29 -1 -17 -3 -15 -9 8 -4 17 -8 23 -9 14 -2 -34 -58 -39 -70 -6
-8 20 -9 19 -20 -18 -6 -22 -11 -49 -10 -60 0 -17 2 -16 11 5 6 15 12 20 15
13 6 -16 23 -17 23 -2 0 7 8 18 18 25 14 10 20 10 33 -2 19 -17 30 -7 47 41
10 28 10 28 11 6 1 -14 8 -33 17 -42 16 -18 14 -20 -32 -39 -27 -12 -61 -27
-75 -34 -36 -18 -79 4 -79 40 l0 25 -22 -26 c-23 -26 -23 -26 -65 -9 -24 9
-43 20 -43 24 0 3 18 19 40 36 59 42 170 149 170 162 0 6 9 16 20 22 11 6 20
17 20 25 0 8 8 19 19 24 10 6 24 24 31 41 7 16 16 30 20 30 4 0 16 22 26 50
10 28 21 50 25 50 5 0 16 26 26 58 9 31 20 59 24 62 10 8 39 145 39 184 0 20
5 36 10 36 6 0 10 55 10 144 0 86 -4 147 -10 151 -5 3 -10 22 -10 41 0 48 -30
174 -41 174 -13 0 -11 -28 2 -32 12 -4 36 -224 26 -235 -4 -3 -15 1 -25 10
-10 10 -28 17 -40 17 -36 0 -25 27 15 37 20 4 39 15 41 22 3 10 0 12 -14 7
-48 -18 -74 -19 -74 -1 0 14 6 16 35 11 33 -6 35 -5 35 19 0 14 -4 25 -10 25
-5 0 -10 11 -10 25 0 36 -27 32 -44 -7 -12 -29 -14 -31 -22 -14 -5 14 -2 23
12 32 54 36 55 39 57 94 0 30 -3 63 -9 72 -7 13 -8 -3 -6 -52 l4 -70 -33 -14
c-25 -11 -36 -11 -41 -3 -5 8 4 13 27 15 24 2 35 8 35 19 0 11 -3 13 -13 5
-15 -13 -42 1 -33 17 4 6 12 9 17 6 11 -8 11 6 0 24 -7 11 -13 6 -26 -19 -13
-25 -19 -30 -26 -19 -5 10 1 23 21 44 17 18 30 42 30 55 0 14 -4 20 -8 14 -13
-19 -40 -23 -52 -8 -11 13 -7 18 11 16 4 -1 5 7 2 18 -7 25 -17 19 -33 -20 -8
-20 -16 -28 -22 -22 -7 7 -1 24 16 48 14 21 23 40 20 43 -5 6 -13 -3 -41 -46
-10 -15 -14 -15 -21 -4 -9 12 10 66 27 81 12 11 5 45 -10 48 -11 2 -23 -13
-37 -48 l-21 -51 21 -37 c11 -20 23 -39 27 -42 12 -10 60 -115 72 -160 7 -25
16 -47 20 -50 11 -8 20 -104 10 -119 -6 -9 -11 2 -16 35 -4 27 -15 68 -26 91
-10 23 -19 47 -19 52 0 6 -9 27 -19 48 -11 21 -25 50 -30 66 -6 15 -15 27 -21
27 -5 0 -10 6 -10 14 0 7 -18 36 -40 64 l-41 51 46 45 c48 48 60 75 26 56 -11
-5 -22 -19 -26 -30 -3 -10 -18 -25 -34 -33 -26 -13 -29 -12 -78 33 l-50 46 26
32 c14 18 31 32 38 32 7 0 17 9 23 20 19 35 -7 23 -56 -25 -24 -25 -47 -45
-51 -45 -3 0 -25 16 -49 35 -23 19 -46 35 -51 35 -4 0 -28 14 -52 30 -24 17
-50 30 -58 30 -8 0 -35 9 -60 21 -25 11 -80 28 -123 37 -45 10 -75 21 -73 28
4 12 141 -7 178 -25 11 -6 45 -20 75 -32 30 -13 57 -25 60 -28 3 -4 22 -15 43
-25 20 -11 37 -23 37 -27 0 -4 9 -10 20 -14 20 -6 110 39 110 55 0 21 -25 20
-72 -3 -48 -24 -53 -25 -65 -9 -16 22 -16 32 1 32 8 0 24 9 37 21 19 16 20 19
6 15 -10 -3 -23 -6 -28 -6 -5 0 -18 -9 -29 -20 -14 -14 -25 -18 -36 -12 -13 7
-8 13 26 30 39 19 41 21 21 32 -17 9 -21 8 -21 -5 0 -17 -16 -20 -26 -4 -3 6
0 15 7 20 11 7 10 9 -3 9 -11 0 -20 -10 -24 -25 -7 -28 -34 -32 -73 -11 l-24
13 24 17 c35 24 57 22 34 -4 -10 -11 -16 -22 -13 -25 2 -3 18 9 34 27 16 17
24 28 17 24 -7 -4 -24 1 -38 10 -23 15 -25 15 -25 -1 0 -9 -6 -15 -12 -12 -7
2 -12 12 -12 21 1 9 -3 15 -10 13 -6 -2 -11 -16 -11 -30 1 -15 -5 -29 -12 -31
-20 -8 -25 12 -9 36 17 24 20 38 9 38 -5 0 -15 -13 -25 -29 -13 -24 -21 -28
-40 -23 -22 5 -21 6 10 19 35 14 44 43 12 43 -11 0 -19 -5 -17 -12 1 -6 -6
-14 -16 -16 -15 -3 -18 1 -15 20 2 18 -2 23 -19 22 -12 0 -20 3 -17 8 3 4 -1
8 -10 8 -9 0 -17 -15 -21 -41 -8 -45 -28 -48 -33 -6 -6 46 -87 94 -98 59 -3
-9 -10 -25 -15 -34 -13 -24 -11 -52 4 -67 10 -10 8 -12 -8 -9 -18 3 -20 10
-17 66 1 34 -1 62 -6 62 -5 0 -6 15 -3 32 5 26 13 34 36 39 18 4 -3 7 -50 7
-47 0 -68 -3 -50 -7z m-162 -160 c3 -13 -1 -21 -14 -24 -15 -4 -19 0 -19 19 0
29 25 33 33 5z m157 -2 c0 -18 -4 -20 -27 -14 -23 5 -25 4 -14 -9 10 -11 10
-16 2 -16 -6 0 -14 7 -17 15 -10 25 4 45 31 45 19 0 25 -5 25 -21z m165 -8 c0
-13 -7 -27 -15 -29 -13 -5 -13 -3 -1 12 13 16 12 17 -12 11 -23 -6 -27 -4 -27
15 0 17 5 21 28 18 21 -2 27 -8 27 -27z m125 9 c0 -13 -7 -20 -19 -20 -14 0
-18 5 -14 20 3 11 12 20 19 20 8 0 14 -9 14 -20z m-266 -68 c3 -5 -41 -14 -97
-21 -56 -7 -106 -16 -112 -20 -5 -4 -30 -13 -55 -20 -74 -21 -199 -85 -265
-136 -20 -15 -39 -24 -42 -21 -7 7 16 36 28 36 5 0 18 8 28 18 30 26 45 38 56
42 6 1 26 13 45 25 32 20 130 55 152 55 6 0 24 7 42 15 51 24 210 44 220 27z
m180 -3 c42 -5 88 -17 103 -24 16 -8 33 -15 39 -15 24 0 121 -35 154 -55 19
-12 37 -22 40 -21 5 1 24 -13 61 -46 10 -10 23 -18 28 -18 12 0 35 -29 28 -36
-3 -3 -22 6 -42 21 -66 51 -191 115 -265 136 -25 7 -50 16 -55 20 -6 4 -56 13
-112 20 -56 7 -100 16 -97 21 7 11 27 10 118 -3z m-154 -229 c30 -12 63 -26
72 -31 21 -11 135 -12 140 -1 5 11 107 44 118 37 14 -9 12 -35 -2 -35 -7 -1
-26 -11 -42 -24 -29 -24 -29 -24 -24 -113 3 -48 12 -101 19 -118 7 -16 13 -34
14 -40 3 -26 51 -101 93 -145 26 -27 56 -66 67 -87 11 -21 25 -44 32 -51 12
-13 33 -75 33 -99 0 -7 5 -13 10 -13 6 0 10 -7 10 -15 0 -10 11 -16 33 -17
l32 -1 -32 -4 c-28 -4 -57 -33 -33 -33 6 0 10 -15 10 -34 0 -37 8 -66 19 -66
3 0 12 14 19 30 8 17 18 30 24 30 13 0 3 -72 -16 -109 -21 -40 -96 -121 -112
-121 -8 0 -14 -4 -14 -10 0 -35 -193 -63 -275 -40 -51 14 -60 30 -16 30 40 0
92 19 119 44 28 25 63 72 66 89 2 7 7 20 11 30 10 24 -1 195 -13 210 -5 7 -15
30 -22 52 -7 22 -37 84 -66 137 -29 53 -56 114 -60 135 -4 21 -11 41 -17 44
-5 4 -12 48 -15 98 -2 50 -8 91 -12 91 -14 0 -28 -24 -39 -67 -6 -23 -18 -54
-26 -70 -8 -15 -15 -38 -15 -49 0 -22 -23 -56 -73 -109 -35 -37 -63 -95 -77
-158 -13 -58 -8 -67 33 -67 47 0 151 -27 155 -39 2 -6 21 -14 43 -17 45 -8 71
-30 45 -40 -21 -8 -85 4 -112 21 -14 9 -44 13 -87 11 -57 -3 -72 -8 -106 -36
-23 -17 -41 -40 -41 -51 0 -10 -4 -19 -8 -19 -5 0 -14 -18 -21 -40 -12 -42
-37 -64 -83 -75 -37 -9 -56 -33 -34 -41 9 -3 16 -12 16 -20 0 -18 -2 -18 -45
3 -35 17 -36 17 -52 -8 -24 -33 -75 -79 -89 -79 -7 0 -31 12 -53 27 -28 18
-41 34 -41 49 0 22 -1 21 -30 -8 -40 -40 -64 -34 -68 16 -5 58 33 127 89 161
9 6 34 22 55 36 22 15 54 30 72 34 41 9 41 23 0 28 -32 4 -32 4 5 5 44 2 77
17 77 35 0 7 8 22 18 33 9 10 27 39 40 64 39 77 61 110 92 140 24 23 29 35 24
58 -6 32 13 47 47 37 12 -4 22 1 29 15 6 11 17 20 25 20 8 0 26 17 42 38 15
20 40 52 55 70 15 18 28 41 28 52 0 10 6 25 14 32 7 8 17 24 20 36 6 18 4 22
-16 22 -21 0 -98 44 -98 55 0 7 33 -7 62 -27 27 -19 84 -25 73 -8 -3 6 -16 10
-28 10 -12 0 -39 9 -59 20 -21 11 -44 17 -52 14 -8 -3 -22 7 -35 24 -24 34
-27 46 -8 39 6 -3 37 -15 67 -27z m-610 7 c0 -12 -100 -104 -105 -97 -7 12 73
100 91 100 8 0 14 -1 14 -3z m1299 -42 c59 -64 41 -75 -19 -13 -28 29 -50 53
-50 55 0 2 6 3 14 3 7 0 32 -20 55 -45z m-1409 -71 c0 -3 -13 -23 -30 -44 -16
-21 -30 -43 -30 -49 0 -6 -4 -11 -9 -11 -8 0 -81 -138 -81 -153 0 -5 -9 -27
-19 -50 -11 -23 -22 -69 -26 -102 -4 -33 -11 -65 -15 -70 -5 -6 -10 -24 -13
-40 -2 -17 -2 -1 0 35 5 74 23 170 33 170 3 0 12 23 19 50 7 28 17 50 22 50 5
0 9 8 9 18 0 19 53 107 92 155 13 15 25 32 26 37 4 11 22 14 22 4z m1472 -4
c2 -5 13 -22 26 -37 39 -48 92 -136 92 -155 0 -10 4 -18 9 -18 5 0 15 -22 22
-50 7 -27 16 -50 19 -50 10 0 28 -96 33 -170 2 -36 2 -52 0 -35 -3 16 -8 34
-13 40 -4 5 -11 37 -15 70 -4 33 -15 79 -26 102 -10 23 -19 45 -19 50 0 15
-73 153 -81 153 -5 0 -9 5 -9 11 0 6 -13 28 -30 49 -16 21 -30 41 -30 44 0 10
18 7 22 -4z m-1069 -37 c-7 -2 -19 -2 -25 0 -7 3 -2 5 12 5 14 0 19 -2 13 -5z
m194 0 c-20 -2 -52 -2 -70 0 -17 2 0 4 38 4 39 0 53 -2 32 -4z m480 1 c-3 -3
-12 -4 -19 -1 -8 3 -5 6 6 6 11 1 17 -2 13 -5z m231 -1 c-10 -2 -26 -2 -35 0
-10 3 -2 5 17 5 19 0 27 -2 18 -5z m-1523 -85 c27 -12 29 -16 17 -36 -6 -9
-16 -4 -37 18 -30 31 -23 38 20 18z m1895 -13 c-17 -18 -27 -22 -34 -14 -12
12 17 39 43 39 10 0 8 -7 -9 -25z m-2010 -85 c0 -5 18 -20 40 -32 22 -13 39
-29 38 -37 -5 -27 -26 -22 -36 9 -13 37 -42 41 -42 5 0 -14 -4 -25 -10 -25 -5
0 -10 -11 -10 -25 0 -24 2 -25 40 -19 33 5 40 4 40 -10 0 -9 -8 -16 -19 -16
-31 0 -81 21 -81 34 0 31 24 126 31 126 5 0 9 -4 9 -10z m30 -89 c0 -12 -20
-25 -27 -18 -7 7 6 27 18 27 5 0 9 -4 9 -9z m2068 -10 c3 -8 -1 -12 -9 -9 -7
2 -15 10 -17 17 -3 8 1 12 9 9 7 -2 15 -10 17 -17z m-2085 -66 c41 -8 52 -35
13 -35 -13 0 -29 -7 -36 -15 -21 -26 -30 -17 -30 33 0 26 4 42 8 35 4 -6 24
-14 45 -18z m65 -127 c3 -29 -1 -38 -17 -43 -32 -10 -111 5 -111 21 0 16 36
19 45 4 10 -16 55 -12 62 5 3 9 2 19 -2 23 -4 4 -10 1 -12 -5 -6 -16 -29 -17
-38 -3 -14 23 4 41 37 38 30 -3 33 -6 36 -40z m2030 19 c4 -21 -27 -35 -38
-16 -11 17 -24 5 -17 -16 7 -17 52 -21 62 -5 9 15 45 12 45 -4 0 -9 -17 -16
-45 -20 -65 -10 -85 -1 -85 38 0 41 7 48 45 44 19 -2 31 -9 33 -21z m-2044
-103 c10 -4 16 -18 16 -40 0 -28 -5 -35 -25 -40 -32 -8 -55 1 -55 21 0 22 27
30 46 14 14 -12 16 -11 13 6 -5 23 -45 33 -62 16 -16 -16 -47 -13 -47 3 0 19
81 33 114 20z m2059 0 c22 -4 37 -12 37 -20 0 -17 -31 -19 -47 -3 -17 17 -57
7 -62 -16 -3 -17 -1 -18 13 -6 19 16 46 8 46 -14 0 -20 -23 -29 -55 -21 -21 5
-25 12 -25 40 0 45 17 52 93 40z m-1994 -114 c2 20 33 -42 55 -112 9 -31 21
-58 24 -60 12 -5 62 -83 62 -96 0 -6 9 -16 20 -22 11 -6 20 -17 20 -25 0 -7
11 -22 25 -33 14 -11 25 -23 25 -28 0 -10 70 -74 81 -74 4 0 12 -6 16 -12 24
-38 171 -128 251 -154 26 -8 61 -21 77 -29 17 -7 77 -18 135 -25 130 -15 130
-15 123 -38 -4 -16 -20 -21 -121 -31 -154 -15 -168 -15 -205 4 -18 9 -51 23
-75 31 -23 8 -59 26 -80 39 -96 63 -113 78 -108 92 5 11 2 13 -10 9 -8 -3 -20
-6 -25 -6 -5 0 -9 -5 -9 -11 0 -20 -39 -66 -60 -72 -17 -4 -19 -3 -9 9 6 8 17
14 23 14 6 0 17 10 25 22 12 20 10 25 -27 60 -23 21 -45 38 -50 38 -6 0 -26
-17 -47 -37 l-37 -38 20 34 c11 18 31 39 44 46 21 11 27 8 65 -28 24 -23 46
-38 49 -34 4 4 -12 25 -34 47 -27 25 -39 45 -36 55 4 11 2 13 -9 9 -10 -3 -20
3 -28 18 -6 13 -16 26 -22 29 -24 16 -113 188 -123 238 -4 17 -10 31 -14 31
-10 0 -29 95 -34 180 l-5 75 13 -65 c8 -36 14 -58 15 -50z m1877 38 c-8 -88
-26 -178 -36 -178 -4 0 -10 -14 -14 -31 -10 -50 -99 -222 -123 -238 -6 -3 -16
-16 -22 -29 -8 -15 -18 -21 -28 -18 -11 4 -13 2 -9 -9 3 -10 -9 -30 -36 -55
-22 -22 -38 -43 -34 -47 3 -4 25 11 49 34 38 36 44 39 65 28 13 -7 33 -28 44
-46 l20 -34 -37 38 c-21 20 -41 37 -47 37 -5 0 -27 -17 -50 -38 -37 -35 -39
-40 -27 -60 8 -12 19 -22 25 -22 6 0 17 -6 23 -14 10 -12 8 -13 -9 -9 -21 6
-60 52 -60 72 0 6 -4 11 -9 11 -5 0 -17 3 -25 6 -12 4 -15 2 -10 -9 5 -14 -12
-29 -108 -92 -21 -13 -57 -31 -80 -39 -24 -8 -57 -22 -75 -31 -37 -19 -51 -19
-205 -4 -101 10 -117 15 -121 31 -7 23 -7 23 123 38 58 7 119 18 135 25 17 8
51 21 77 29 80 26 227 116 251 154 4 6 12 12 16 12 11 0 81 64 81 74 0 5 11
17 25 28 14 11 25 26 25 33 0 8 9 19 20 25 11 6 20 16 20 22 0 12 48 88 62 98
4 3 14 28 23 55 28 84 48 126 56 114 4 -6 10 16 14 50 10 86 19 76 11 -11z
m-1568 25 c-10 -2 -26 -2 -35 0 -10 3 -2 5 17 5 19 0 27 -2 18 -5z m-453 -63
c3 -5 19 -10 36 -10 46 0 35 -25 -16 -37 l-45 -10 0 33 c0 33 12 45 25 24z
m2165 -30 c0 -22 -4 -40 -10 -40 -5 0 -10 4 -10 9 0 5 -16 12 -35 15 -44 9
-48 36 -6 36 17 0 33 5 36 10 13 22 25 8 25 -30z m-2026 -125 c9 -16 16 -35
16 -42 0 -7 9 -29 19 -50 11 -21 25 -50 30 -65 6 -16 15 -28 21 -28 5 0 10 -6
10 -14 0 -7 18 -36 40 -64 l41 -51 -45 -44 c-39 -40 -45 -43 -49 -25 -6 20 10
68 25 79 9 6 -18 65 -72 159 -21 36 -43 92 -50 125 -7 33 -16 65 -20 70 -13
16 -23 83 -14 97 5 8 13 -12 20 -52 7 -36 19 -78 28 -95z m1912 102 c-4 -23
-11 -46 -15 -52 -5 -5 -14 -37 -21 -70 -7 -33 -16 -64 -20 -70 -25 -33 -110
-209 -103 -214 16 -11 32 -59 26 -79 -4 -18 -10 -15 -49 25 l-45 44 41 51 c22
28 40 57 40 64 0 8 5 14 10 14 6 0 15 12 21 28 5 15 19 44 30 65 10 21 19 42
19 48 0 5 9 29 19 53 11 23 23 66 27 94 4 30 11 49 16 46 6 -4 7 -24 4 -47z
m-1976 -23 c0 -14 -7 -15 -39 -10 -36 5 -40 4 -44 -16 l-4 -23 -2 23 c-1 15 7
26 22 32 36 15 67 12 67 -6z m2049 5 c30 -11 32 -15 27 -42 -3 -17 -14 -43
-24 -58 l-17 -28 -33 21 c-21 13 -32 28 -32 44 0 34 9 30 26 -11 15 -38 44
-48 44 -15 0 11 -5 19 -12 18 -6 -2 -14 5 -16 15 -4 20 18 23 36 5 9 -9 12 -6
12 15 0 26 -2 28 -35 21 -28 -5 -35 -3 -35 10 0 19 15 20 59 5z m-2081 -56
c-2 -10 -10 -17 -16 -15 -7 1 -12 -3 -12 -10 0 -9 -3 -9 -12 0 -8 8 -8 15 2
27 17 21 42 19 38 -2z m52 -5 c0 -15 -11 -29 -31 -41 -18 -10 -34 -15 -37 -12
-3 3 0 5 6 5 7 0 18 16 26 35 17 40 36 46 36 13z m10 -63 c0 -11 -10 -15 -37
-14 l-38 1 30 13 c39 18 45 18 45 0z m1996 -23 c1 -7 0 -8 -3 -2 -2 5 -18 10
-34 10 -19 0 -29 5 -29 15 0 13 4 13 32 2 17 -7 33 -18 34 -25z m-2019 -25
c-5 -15 -37 -17 -37 -3 0 7 3 15 6 19 9 9 35 -4 31 -16z m1997 -36 l-18 -31
-23 22 c-13 12 -23 27 -23 35 0 22 16 14 29 -14 10 -22 14 -24 22 -12 11 18
12 32 0 24 -5 -3 -13 0 -17 6 -11 18 19 30 35 15 11 -12 10 -19 -5 -45z
m-1974 4 c-13 -14 -25 -23 -27 -21 -3 2 3 19 12 36 12 24 20 29 28 21 8 -8 4
-18 -13 -36z m43 -9 c3 -8 -5 -18 -19 -25 -40 -18 -49 -13 -24 14 27 28 36 31
43 11z m1907 -50 c0 -7 -3 -8 -8 -1 -4 6 -19 16 -34 22 -19 9 -26 17 -21 28 5
14 10 12 34 -11 16 -15 29 -33 29 -38z m-1925 -27 c-6 -9 -35 -1 -35 10 0 4 3
11 7 14 8 9 34 -13 28 -24z m30 -9 c-14 -26 -35 -48 -35 -36 0 16 35 74 42 70
4 -3 1 -18 -7 -34z m1868 9 c-25 -9 -36 0 -22 17 9 11 15 12 26 2 13 -10 12
-13 -4 -19z m-35 -13 c25 -41 16 -58 -10 -19 -16 26 -24 53 -14 53 2 0 13 -15
24 -34z m-1790 -17 c10 -16 11 -28 2 -55 -14 -40 -22 -42 -43 -11 -13 20 -13
28 -1 55 15 37 24 40 42 11z m1768 -10 c12 -25 14 -37 5 -55 -15 -33 -28 -30
-41 10 -9 27 -8 39 2 55 7 12 14 21 15 21 1 0 10 -14 19 -31z m-1617 -196
c-10 -11 -15 -11 -30 3 -15 13 -16 20 -8 31 10 11 15 11 30 -3 15 -13 16 -20
8 -31z m1465 6 c-13 -15 -20 -16 -31 -8 -11 10 -11 15 3 30 13 15 20 16 31 8
11 -10 11 -15 -3 -30z m-1318 -44 c23 -19 46 -35 51 -35 5 0 25 -11 44 -25 19
-14 53 -31 77 -37 23 -6 42 -13 42 -17 0 -4 22 -13 49 -20 28 -7 55 -19 62
-28 11 -13 8 -14 -27 -7 -21 4 -48 13 -59 19 -11 7 -44 20 -73 30 -29 9 -83
35 -118 57 l-65 39 -46 -22 c-40 -19 -46 -20 -60 -6 -14 13 -13 16 4 21 10 3
27 19 36 36 10 16 23 30 29 30 6 0 30 -16 54 -35z m1221 5 c9 -17 26 -33 36
-36 17 -5 18 -8 4 -21 -14 -14 -20 -13 -60 6 l-46 22 -65 -39 c-35 -22 -89
-48 -118 -57 -29 -10 -62 -23 -73 -30 -11 -6 -38 -15 -59 -19 -35 -7 -38 -6
-27 7 7 9 34 21 62 28 27 7 49 16 49 20 0 4 19 11 43 17 23 6 57 23 76 37 19
14 40 25 45 25 6 1 29 16 51 35 22 19 45 35 52 35 6 0 20 -14 30 -30z m-1187
-92 c0 -5 -15 -15 -32 -23 -29 -12 -35 -12 -48 2 -9 9 -11 17 -5 19 6 3 21 10
35 18 25 13 50 5 50 -16z m1160 -9 c0 -4 -6 -12 -14 -18 -11 -9 -23 -8 -52 4
-35 14 -36 16 -20 34 16 17 19 17 51 3 19 -9 35 -19 35 -23z m-1112 -13 c-16
-12 -88 -34 -83 -25 10 15 67 39 78 32 5 -3 7 -6 5 -7z m1035 -15 c16 -10 24
-21 19 -25 -6 -3 -12 -2 -14 2 -1 5 -21 16 -43 25 -33 13 -36 16 -15 16 14 1
38 -8 53 -18z m-989 -10 c3 -4 -6 -19 -19 -31 -26 -24 -33 -14 -15 21 11 20
25 25 34 10z m676 -7 c0 -6 -7 -17 -15 -24 -8 -7 -15 -21 -15 -31 0 -19 -13
-24 -87 -32 -37 -4 -42 -2 -45 17 -4 29 -33 28 -32 -1 0 -17 -5 -23 -20 -23
-15 0 -17 3 -8 12 22 22 14 48 -13 48 -27 0 -35 -26 -13 -48 9 -9 7 -12 -8
-12 -15 0 -20 6 -20 23 1 29 -28 30 -32 1 -3 -19 -8 -21 -45 -17 -74 8 -87 13
-87 32 0 10 -7 24 -15 31 -38 32 -17 35 220 35 168 0 235 -3 235 -11z m235
-14 c22 -43 19 -47 -15 -15 -22 21 -27 31 -18 37 17 10 16 12 33 -22z m-967 1
c3 -8 -1 -12 -9 -9 -7 2 -15 10 -17 17 -3 8 1 12 9 9 7 -2 15 -10 17 -17z
m1009 0 c0 -11 -6 -17 -14 -14 -14 6 -17 16 -6 26 12 13 22 7 20 -12z m-897 0
c0 -5 -18 -18 -40 -29 -45 -22 -50 -19 -18 15 21 23 58 32 58 14z m817 -13
c34 -32 28 -38 -17 -16 -22 11 -37 24 -34 29 9 15 26 10 51 -13z m-1380 -10
c-3 -8 -6 -5 -6 6 -1 11 2 17 5 13 3 -3 4 -12 1 -19z m273 12 c0 -5 -10 -10
-22 -10 -19 0 -20 2 -8 10 19 13 30 13 30 0z m335 0 c3 -5 -1 -20 -9 -32 -9
-12 -16 -18 -16 -13 0 6 -3 20 -6 33 -5 16 -2 22 9 22 9 0 19 -4 22 -10z m701
-6 c-3 -9 -6 -23 -6 -32 0 -12 -4 -11 -16 7 -14 19 -14 25 -3 32 21 13 32 11
25 -7z m344 6 c12 -8 11 -10 -7 -10 -13 0 -23 5 -23 10 0 13 11 13 30 0z m93
-33 c9 -4 17 -15 17 -26 0 -19 -2 -19 -37 -5 -51 21 -57 28 -43 55 12 22 12
22 29 2 9 -11 24 -23 34 -26z m144 21 c-3 -8 -6 -5 -6 6 -1 11 2 17 5 13 3 -3
4 -12 1 -19z m-1937 -4 c0 -8 -4 -12 -10 -9 -5 3 -10 10 -10 16 0 5 5 9 10 9
6 0 10 -7 10 -16z m2000 7 c0 -6 -4 -13 -10 -16 -5 -3 -10 1 -10 9 0 9 5 16
10 16 6 0 10 -4 10 -9z m-1395 -31 c0 -22 -21 -22 -22 1 -1 12 3 19 10 16 7
-2 12 -10 12 -17z m85 -4 c-40 -27 -46 -27 -30 3 7 13 21 21 38 21 l26 0 -34
-24z m630 3 c16 -30 10 -30 -30 -3 l-34 24 26 0 c17 0 31 -8 38 -21z m76 5
c-5 -12 -1 -14 17 -10 l22 6 -23 -12 c-25 -12 -50 1 -38 21 11 17 29 13 22 -5z
m-1028 -12 c29 -20 155 -62 187 -62 18 -1 17 -2 -5 -15 -24 -14 -23 -15 25
-11 28 2 42 2 33 -1 -10 -2 -21 -15 -24 -28 -3 -14 -16 -26 -30 -29 -19 -5
-24 -13 -24 -40 0 -33 -1 -34 -25 -23 -18 9 -25 20 -25 40 0 15 -4 27 -10 27
-5 0 -10 -11 -10 -25 0 -30 -28 -34 -74 -10 -15 8 -33 15 -38 15 -5 0 -23 9
-40 21 -38 27 -36 68 5 87 15 7 27 17 27 22 0 4 -12 18 -27 29 l-28 20 28 1
c16 0 41 -8 55 -18z m639 12 c-3 -3 -12 -4 -19 -1 -8 3 -5 6 6 6 11 1 17 -2
13 -5z m661 -15 c-35 -26 -35 -37 -3 -49 14 -5 30 -22 36 -37 9 -25 7 -30 -18
-50 -15 -13 -33 -23 -39 -23 -7 0 -25 -7 -40 -15 -46 -24 -74 -20 -74 10 0 14
-4 25 -10 25 -5 0 -10 -12 -10 -27 0 -20 -7 -31 -25 -40 -24 -11 -25 -10 -25
23 0 27 -5 35 -24 40 -14 3 -27 15 -30 29 -3 13 -14 26 -24 28 -9 3 6 3 33 1
48 -4 49 -3 25 11 -22 13 -23 14 -5 15 33 0 158 42 185 61 14 10 36 18 50 18
l25 0 -27 -20z m-1521 -21 c-3 -7 -5 -2 -5 12 0 14 2 19 5 13 2 -7 2 -19 0
-25z m1690 0 c-3 -7 -5 -2 -5 12 0 14 2 19 5 13 2 -7 2 -19 0 -25z m-1859 15
c-15 -2 -42 -2 -60 0 -18 2 -6 4 27 4 33 0 48 -2 33 -4z m752 -12 c0 -26 -27
-35 -33 -11 -5 21 0 30 20 30 7 0 13 -9 13 -19z m555 -8 c1 -18 -1 -20 -17
-12 -23 12 -24 42 -1 37 9 -2 17 -13 18 -25z m783 20 c-15 -2 -42 -2 -60 0
-18 2 -6 4 27 4 33 0 48 -2 33 -4z m-1967 -16 c-1 -12 -15 -9 -19 4 -3 6 1 10
8 8 6 -3 11 -8 11 -12z m159 -16 c0 -23 -6 -31 -27 -39 -16 -5 -36 -13 -45
-17 -15 -6 -18 -2 -18 19 0 21 7 29 30 37 17 6 30 15 30 20 0 5 7 9 15 9 10 0
15 -10 15 -29z m1490 20 c0 -5 14 -14 30 -20 23 -8 30 -16 30 -37 0 -21 -3
-25 -17 -19 -10 4 -30 12 -45 17 -22 8 -28 16 -28 39 0 19 5 29 15 29 8 0 15
-4 15 -9z m150 1 c0 -13 -12 -22 -22 -16 -10 6 -1 24 13 24 5 0 9 -4 9 -8z
m-1856 -8 c29 -11 16 -24 -24 -24 -37 0 -40 -2 -40 -29 0 -24 -3 -28 -20 -24
-11 3 -23 9 -25 13 -9 14 6 40 24 41 14 1 14 2 -1 6 -10 2 -18 9 -18 14 0 10
79 12 104 3z m1996 -4 c0 -5 -8 -11 -17 -11 -16 -1 -16 -2 -1 -6 17 -4 31 -30
23 -43 -2 -4 -14 -10 -25 -13 -17 -4 -20 0 -20 24 0 27 -3 29 -40 29 -38 0
-54 13 -27 23 23 10 107 7 107 -3z m-770 -40 c0 -15 -5 -12 -26 11 -19 22 -19
22 4 10 12 -6 22 -16 22 -21z m-1130 -36 c-7 -7 -23 -14 -36 -14 -20 0 -24 5
-24 29 0 26 4 30 33 33 24 2 33 -1 35 -15 2 -10 -2 -25 -8 -33z m600 41 c-7
-9 -15 -13 -17 -11 -7 7 7 26 19 26 6 0 6 -6 -2 -15z m340 -32 c-3 -34 -5 -40
-8 -20 -3 27 -43 57 -77 57 -34 0 -74 -30 -77 -57 -3 -20 -5 -14 -8 20 l-5 47
90 0 90 0 -5 -47z m820 6 c0 -24 -4 -29 -23 -29 -29 0 -47 18 -47 45 0 18 5
20 35 17 31 -4 35 -8 35 -33z m-1840 0 c0 -27 -3 -30 -27 -27 -22 2 -29 9 -31
31 -3 24 0 27 27 27 28 0 31 -3 31 -31z m811 21 c12 -7 19 -21 19 -41 0 -38
-35 -56 -82 -43 -26 8 -34 16 -36 39 -6 47 49 71 99 45z m333 -3 c12 -9 17
-23 14 -42 -2 -23 -10 -31 -36 -39 -47 -13 -82 5 -82 43 0 46 62 69 104 38z
m774 -14 c-2 -22 -9 -29 -30 -31 -25 -3 -28 0 -28 27 0 28 3 31 31 31 27 0 30
-3 27 -27z m-960 -16 c3 -23 0 -27 -22 -27 -21 0 -26 5 -26 23 0 13 3 27 7 31
15 14 38 0 41 -27z m-58 -7 c0 -5 -7 -10 -15 -10 -8 0 -15 5 -15 10 0 6 7 10
15 10 8 0 15 -4 15 -10z m100 0 c0 -5 -7 -10 -15 -10 -8 0 -15 5 -15 10 0 6 7
10 15 10 8 0 15 -4 15 -10z m-380 -15 c0 -11 -11 -15 -39 -15 -25 0 -41 5 -45
15 -4 12 4 15 39 15 33 0 45 -4 45 -15z m714 0 c-4 -10 -20 -15 -45 -15 -28 0
-39 4 -39 15 0 11 12 15 45 15 35 0 43 -3 39 -15z m-707 -158 c-2 -23 -3 -2
-3 48 0 50 1 68 3 42 2 -26 2 -67 0 -90z m620 0 c-2 -23 -3 -2 -3 48 0 50 1
68 3 42 2 -26 2 -67 0 -90z m-641 107 c-3 -9 -6 -33 -6 -55 0 -50 -27 -55 -32
-6 -2 24 -8 32 -23 32 -15 0 -21 -8 -23 -32 -5 -49 -32 -44 -32 6 0 22 -3 46
-6 55 -5 14 4 16 61 16 57 0 66 -2 61 -16z m780 0 c-3 -9 -6 -33 -6 -55 0 -50
-27 -55 -32 -6 -2 24 -8 32 -23 32 -15 0 -21 -8 -23 -32 -5 -49 -32 -44 -32 6
0 22 -3 46 -6 55 -5 14 4 16 61 16 57 0 66 -2 61 -16z m-1429 -10 c-3 -3 -12
-4 -19 -1 -8 3 -5 6 6 6 11 1 17 -2 13 -5z m1970 0 c-3 -3 -12 -4 -19 -1 -8 3
-5 6 6 6 11 1 17 -2 13 -5z m-1376 -95 c-4 -60 -7 -60 -13 4 -4 31 -2 47 6 47
7 0 10 -18 7 -51z m781 4 c-6 -64 -9 -64 -13 -4 -3 33 0 51 7 51 8 0 10 -16 6
-47z"/>
<path d="M1478 1964 c-5 -4 -8 -32 -8 -63 1 -43 3 -52 11 -38 11 19 8 113 -3
101z"/>
<path d="M1476 1824 c-7 -19 24 -174 35 -174 4 0 12 -13 17 -29 8 -23 15 -28
31 -24 20 5 20 5 1 52 -10 25 -26 61 -35 79 -9 18 -19 51 -22 73 -6 41 -17 50
-27 23z"/>
<path d="M1595 1570 c10 -11 20 -20 23 -20 3 0 -3 9 -13 20 -10 11 -20 20 -23
20 -3 0 3 -9 13 -20z"/>
<path d="M1691 1389 c-1 -16 -10 -33 -23 -42 -20 -14 -21 -18 -8 -26 8 -6 22
-8 31 -5 18 5 31 -16 21 -33 -4 -5 -15 -12 -24 -16 -13 -5 -18 -18 -18 -50 0
-24 -4 -47 -9 -52 -5 -6 -14 -27 -20 -47 -11 -34 -71 -99 -102 -110 -8 -3 -11
-8 -8 -12 3 -3 34 8 67 25 141 70 176 200 102 374 -8 18 -9 17 -9 -6z"/>
<path d="M1090 452 c-5 -2 -10 -11 -10 -19 0 -13 9 -15 46 -10 31 3 42 2 33
-5 -11 -7 -9 -8 6 -6 11 2 21 11 23 20 2 12 -7 17 -42 20 -25 1 -50 2 -56 0z"/>
<path d="M1402 452 c-34 -3 -43 -7 -40 -20 2 -9 12 -18 23 -20 15 -2 17 -1 6
6 -9 7 2 8 33 5 37 -5 46 -3 46 10 0 19 -14 23 -68 19z"/>
<path d="M1077 313 c-16 -15 -5 -24 23 -18 18 4 30 3 30 -4 0 -5 -10 -12 -22
-14 -22 -4 -22 -4 -2 -6 24 -1 49 23 39 39 -7 11 -58 14 -68 3z"/>
<path d="M1405 310 c-10 -16 14 -40 39 -39 20 2 20 2 -1 6 -13 2 -23 9 -23 14
0 7 12 8 31 4 24 -5 30 -4 27 6 -6 17 -64 24 -73 9z"/>
<path d="M1388 2543 c7 -3 16 -2 19 1 4 3 -2 6 -13 5 -11 0 -14 -3 -6 -6z"/>
<path d="M988 2503 c6 -2 18 -2 25 0 6 3 1 5 -13 5 -14 0 -19 -2 -12 -5z"/>
<path d="M1538 2503 c6 -2 18 -2 25 0 6 3 1 5 -13 5 -14 0 -19 -2 -12 -5z"/>
<path d="M948 2493 c7 -3 16 -2 19 1 4 3 -2 6 -13 5 -11 0 -14 -3 -6 -6z"/>
<path d="M1588 2493 c7 -3 16 -2 19 1 4 3 -2 6 -13 5 -11 0 -14 -3 -6 -6z"/>
<path d="M908 2483 c7 -3 16 -2 19 1 4 3 -2 6 -13 5 -11 0 -14 -3 -6 -6z"/>
<path d="M1628 2483 c7 -3 16 -2 19 1 4 3 -2 6 -13 5 -11 0 -14 -3 -6 -6z"/>
<path d="M850 2460 c-18 -12 -2 -12 25 0 13 6 15 9 5 9 -8 0 -22 -4 -30 -9z"/>
<path d="M1675 2460 c27 -12 43 -12 25 0 -8 5 -22 9 -30 9 -10 0 -8 -3 5 -9z"/>
<path d="M800 2440 c-8 -5 -10 -10 -5 -10 6 0 17 5 25 10 8 5 11 10 5 10 -5 0
-17 -5 -25 -10z"/>
<path d="M1730 2440 c8 -5 20 -10 25 -10 6 0 3 5 -5 10 -8 5 -19 10 -25 10 -5
0 -3 -5 5 -10z"/>
<path d="M693 2390 c-34 -14 -28 -21 7 -9 17 6 30 13 30 15 0 6 -12 4 -37 -6z"/>
<path d="M1820 2397 c0 -3 15 -10 32 -16 18 -6 28 -7 23 -2 -12 10 -55 25 -55
18z"/>
<path d="M884 2374 c0 -9 -5 -19 -11 -21 -7 -3 -13 3 -13 11 0 15 -2 15 -25 0
-13 -8 -30 -12 -37 -8 -7 4 0 -7 16 -24 16 -18 32 -30 34 -27 3 3 -3 14 -13
25 -22 25 -1 28 32 5 18 -13 22 -13 33 0 6 8 10 22 8 31 -4 23 -26 30 -24 8z"/>
<path d="M605 2329 c-16 -10 -25 -19 -19 -19 7 0 22 9 35 20 30 24 23 24 -16
-1z"/>
<path d="M1929 2331 c13 -12 28 -21 34 -21 12 0 11 0 -28 24 l-30 17 24 -20z"/>
<path d="M469 2213 c-13 -16 -12 -17 4 -4 9 7 17 15 17 17 0 8 -8 3 -21 -13z"/>
<path d="M2060 2226 c0 -2 8 -10 18 -17 15 -13 16 -12 3 4 -13 16 -21 21 -21
13z"/>
<path d="M425 2169 c-4 -6 -5 -12 -2 -15 2 -3 7 2 10 11 7 17 1 20 -8 4z"/>
<path d="M502 2137 l-42 -43 37 -37 37 -38 44 44 c40 40 43 46 31 66 -8 11
-18 21 -23 21 -5 0 -17 7 -26 15 -15 13 -20 10 -58 -28z m52 -48 c-13 -15 -20
-16 -31 -8 -11 10 -11 15 3 30 13 15 20 16 31 8 11 -10 11 -15 -3 -30z"/>
<path d="M1990 2165 c-7 -8 -18 -15 -24 -15 -6 0 -17 -10 -24 -21 -13 -20 -10
-25 29 -65 40 -41 43 -42 64 -26 11 9 28 26 37 37 16 21 15 24 -26 64 -38 37
-44 40 -56 26z m39 -82 c-10 -11 -15 -11 -30 3 -15 13 -16 20 -8 31 10 11 15
11 30 -3 15 -13 16 -20 8 -31z"/>
<path d="M2116 2167 c3 -10 9 -15 12 -12 3 3 0 11 -7 18 -10 9 -11 8 -5 -6z"/>
<path d="M380 2110 c-6 -11 -8 -20 -6 -20 3 0 10 9 16 20 6 11 8 20 6 20 -3 0
-10 -9 -16 -20z"/>
<path d="M2160 2110 c6 -11 13 -20 16 -20 2 0 0 9 -6 20 -6 11 -13 20 -16 20
-2 0 0 -9 6 -20z"/>
<path d="M336 2053 c-6 -14 -5 -15 5 -6 7 7 10 15 7 18 -3 3 -9 -2 -12 -12z"/>
<path d="M2200 2064 c0 -5 7 -18 15 -28 8 -11 15 -16 15 -10 0 5 -7 18 -15 28
-8 11 -15 16 -15 10z"/>
<path d="M361 594 c0 -11 3 -14 6 -6 3 7 2 16 -1 19 -3 4 -6 -2 -5 -13z"/>
<path d="M2171 594 c0 -11 3 -14 6 -6 3 7 2 16 -1 19 -3 4 -6 -2 -5 -13z"/>
<path d="M471 565 c1 -19 18 -51 18 -35 0 8 -4 22 -9 30 -5 8 -9 11 -9 5z"/>
<path d="M2056 555 c-3 -9 -6 -22 -5 -28 0 -7 5 -1 10 12 5 13 8 26 5 28 -2 2
-6 -3 -10 -12z"/>
<path d="M1047 202 c-12 -13 -17 -37 -17 -79 0 -94 -3 -93 247 -93 247 0 243
-2 243 97 0 94 3 93 -247 93 -191 0 -211 -2 -226 -18z"/>
<path d="M1158 13 c68 -2 176 -2 240 0 64 1 9 3 -123 3 -132 0 -185 -2 -117
-3z"/>
</g>
</svg>
